<svg width="30" height="15" viewBox="0 0 30 15" fill="none" xmlns="http://www.w3.org/2000/svg">
<g clip-path="url(#clip0_1_57)">
<path d="M0.390625 0.595245H29.3906V14.4048H0.390625V0.595245Z" fill="#FF0000"/>
<path d="M7.64062 0.595245H22.1406V14.4048H7.64062V0.595245Z" fill="white"/>
<path d="M14.8906 1.89334L13.9032 3.64715C13.7928 3.84048 13.5925 3.81977 13.3854 3.7162L12.6949 3.36406L13.2266 6.06382C13.337 6.55406 12.978 6.55406 12.7985 6.34691L11.528 5.00739L11.3278 5.69786C11.3087 5.75475 11.2692 5.80252 11.2168 5.83187C11.1645 5.86123 11.1031 5.87007 11.0447 5.85667L9.46347 5.53906L9.87775 6.97525C9.96752 7.29286 10.0366 7.43096 9.78799 7.51382L9.2218 7.76929L11.9423 9.84072C11.996 9.88013 12.0366 9.93481 12.0587 9.99762C12.0809 10.0604 12.0836 10.1285 12.0666 10.1929L11.8318 10.9524C12.7708 10.8488 13.6063 10.6969 14.5454 10.6002C14.5997 10.6091 14.6499 10.6343 14.6894 10.6726C14.7289 10.7109 14.7558 10.7603 14.7663 10.8143L14.642 13.5417H15.0978L15.0287 10.8212C15.0287 10.7314 15.153 10.5933 15.2358 10.6002C16.1749 10.6969 17.0104 10.8488 17.9494 10.9524L17.7147 10.2067C17.6976 10.1423 17.7003 10.0742 17.7225 10.0114C17.7447 9.94862 17.7852 9.89394 17.8389 9.85453L20.5594 7.7831L19.9932 7.50001C19.7447 7.41715 19.8137 7.28596 19.9035 6.96144L20.3178 5.52525L18.7366 5.84286C18.6781 5.85626 18.6167 5.84742 18.5644 5.81806C18.5121 5.78871 18.4725 5.74094 18.4535 5.68406L18.2532 4.99358L17.0035 6.34001C16.8239 6.55405 16.4649 6.55406 16.5754 6.05691L17.1139 3.35715L16.4235 3.70929C16.2232 3.81286 16.023 3.83358 15.9056 3.64025" fill="#FF0000"/>
</g>
<defs>
<clipPath id="clip0_1_57">
<rect width="29" height="13.8095" fill="white" transform="translate(0.390625 0.595245)"/>
</clipPath>
</defs>
</svg>
