<svg xmlns="http://www.w3.org/2000/svg" viewBox="0 0 40.17 27.4"><defs><style>.cls-1{fill:#006ac3}</style></defs><g id="Layer_2" data-name="Layer 2"><g id="Marketing"><path class="cls-1" d="M17.84 15.81a5.28 5.28 0 1 1 5.3-5.28 5.3 5.3 0 0 1-5.3 5.28zm0-9.22a3.94 3.94 0 1 0 4 3.94 3.95 3.95 0 0 0-4-3.94zm-13.43.83a.25.25 0 0 1-.25-.25V4a.25.25 0 0 1 .25-.25h4a.25.25 0 0 1 0 .5H4.66v2.92a.25.25 0 0 1-.25.25zm3.96 10.34h-4a.25.25 0 0 1-.25-.25v-3.13a.25.25 0 1 1 .5 0v2.88h3.75a.25.25 0 0 1 0 .5zM30.86 7.42a.25.25 0 0 1-.25-.25V4.29h-3.72a.25.25 0 0 1 0-.5h4a.25.25 0 0 1 .25.25v3.13a.25.25 0 0 1-.28.25zm0 10.34h-4a.25.25 0 0 1 0-.5h3.74v-2.88a.25.25 0 1 1 .5 0v3.13a.25.25 0 0 1-.24.25z"/><path class="cls-1" d="M34.34 1.34v18.21h-33V1.31h33m0-1.34h-33A1.32 1.32 0 0 0 0 1.32v18.26a1.32 1.32 0 0 0 1.32 1.32h33a1.32 1.32 0 0 0 1.32-1.32V1.32A1.32 1.32 0 0 0 34.36 0z"/><path class="cls-1" d="M38.27 27.4H7.49a1.9 1.9 0 0 1-1.9-1.9V20h1.34v5.5a.56.56 0 0 0 .56.55h30.78a.56.56 0 0 0 .56-.55v-17a.56.56 0 0 0-.56-.55h-3.51V6.59h3.51a1.9 1.9 0 0 1 1.9 1.9v17a1.9 1.9 0 0 1-1.9 1.91z"/></g></g></svg>