
<svg width="34px" height="36px" viewBox="0 0 34 36" version="1.1" xmlns="http://www.w3.org/2000/svg" xmlns:xlink="http://www.w3.org/1999/xlink">
    <defs>
        <polygon id="path-1" points="0 0.336145833 33.2163854 0.336145833 33.2163854 34.2707604 0 34.2707604"></polygon>
    </defs>
    <g id="Page-1" stroke="none" stroke-width="1" fill="none" fill-rule="evenodd">
        <g id="RBC-Royal-Bank-Homepage---4" transform="translate(-736.000000, -938.000000)">
            <g id="Templates-/-Desktop-/-Website-/-Level-1" transform="translate(0.000000, -1.000000)">
                <g id="Customer-Services" transform="translate(716.000000, 770.000000)">
                    <g id="Connect_icon" transform="translate(20.000000, 169.000000)">
                        <path d="M18.1391146,26.5846875 L14.5873438,26.5846875 C13.9828646,26.5846875 13.4935938,26.0946875 13.4935938,25.4909375 C13.4935938,24.8871875 13.9828646,24.3971875 14.5873438,24.3971875 L18.1391146,24.3971875 C18.7435938,24.3971875 19.2328646,24.8871875 19.2328646,25.4909375 C19.2328646,26.0946875 18.7435938,26.5846875 18.1391146,26.5846875" id="Fill-1" fill="#006AC3"></path>
                        <path d="M16.6081563,26.5846875 C16.0036771,26.5846875 15.5144063,26.0946875 15.5144063,25.4909375 L15.5144063,16.3296875 L14.5876354,16.3296875 C13.9831563,16.3296875 13.4938854,15.8396875 13.4938854,15.2359375 C13.4938854,14.6314583 13.9831563,14.1421875 14.5876354,14.1421875 L16.6081563,14.1421875 C17.2126354,14.1421875 17.7019063,14.6314583 17.7019063,15.2359375 L17.7019063,25.4909375 C17.7019063,26.0946875 17.2126354,26.5846875 16.6081563,26.5846875" id="Fill-3" fill="#006AC3"></path>
                        <path d="M18.1391146,10.5565833 C18.1391146,11.5380417 17.3406771,12.3328333 16.3628646,12.3328333 C15.3799479,12.3328333 14.5873438,11.5380417 14.5873438,10.5565833 C14.5873438,9.575125 15.3799479,8.78033333 16.3628646,8.78033333 C17.3406771,8.78033333 18.1391146,9.575125 18.1391146,10.5565833" id="Fill-5" fill="#006AC3"></path>
                        <g id="Group-9" transform="translate(0.000000, 0.393094)">
                            <mask id="mask-2" fill="white">
                                <use xlink:href="#path-1"></use>
                            </mask>
                            <g id="Clip-8"></g>
                            <path d="M16.6081563,1.79440625 C8.25409375,1.79440625 1.45826042,8.59023958 1.45826042,16.9435729 C1.45826042,20.1416979 2.44263542,23.1983646 4.30419792,25.7854479 C4.44128125,25.9757604 4.47846875,26.2207604 4.40336458,26.4438854 L2.39451042,32.4252396 L9.09846875,30.3558646 C9.28076042,30.2997187 9.47909375,30.3172187 9.64898958,30.4047187 C11.8131562,31.5254479 14.1545104,32.0941979 16.6081563,32.0941979 C24.9622188,32.0941979 31.7580521,25.2976354 31.7580521,16.9435729 C31.7580521,8.59023958 24.9622188,1.79440625 16.6081563,1.79440625 M1.25044792,34.2707604 C1.05721875,34.2707604 0.868364583,34.1941979 0.728364583,34.0505521 C0.537322917,33.8551354 0.472427083,33.5685729 0.559197917,33.3097188 L2.90419792,26.3286771 C1.00253125,23.5600312 -7.29166667e-05,20.3225312 -7.29166667e-05,16.9435729 C-7.29166667e-05,7.78669792 7.45055208,0.336072917 16.6081563,0.336072917 C25.7664896,0.336072917 33.2163854,7.78669792 33.2163854,16.9435729 C33.2163854,26.1019062 25.7664896,33.5525313 16.6081563,33.5525313 C14.0575313,33.5525313 11.5193021,32.9597188 9.24721875,31.8353437 L1.46555208,34.2379479 C1.39482292,34.2598229 1.32263542,34.2707604 1.25044792,34.2707604" id="Fill-7" fill="#006AC3" mask="url(#mask-2)"></path>
                        </g>
                    </g>
                </g>
            </g>
        </g>
    </g>
</svg>