<svg xmlns="http://www.w3.org/2000/svg" viewBox="0 0 39 37.14"><defs><style>.cls-1{fill:#006ac3}</style></defs><g id="Layer_2" data-name="Layer 2"><g id="Layer_1-2" data-name="Layer 1"><path class="cls-1" d="M19.41 8.64a4.75 4.75 0 0 1 4.74 4.74.58.58 0 0 0 1.17 0A5.92 5.92 0 0 0 20 7.51V6.16a.58.58 0 1 0-1.17 0v1.35a5.91 5.91 0 0 0 .58 11.79 4.74 4.74 0 1 1-4.75 4.7.58.58 0 0 0-1.17 0 5.92 5.92 0 0 0 5.33 5.88v1.34a.58.58 0 1 0 1.17 0v-1.3a5.91 5.91 0 0 0-.58-11.79 4.74 4.74 0 1 1 0-9.48z"/><path class="cls-1" d="M2.6 14.93a.92.92 0 0 0 .51 0c.24-.08.45-.22.67-.32L5.15 14l2.46-1.1.17-.07a.66.66 0 0 0-.53-1.2L4 13a16.25 16.25 0 0 1 31.66 2 .66.66 0 0 0 .65.56h.1a.66.66 0 0 0 .55-.75 17.56 17.56 0 0 0-34.22-2.15L1.25 9.38a.66.66 0 1 0-1.2.54l.86 1.88.75 1.65.38.83a2.68 2.68 0 0 0 .17.34.65.65 0 0 0 .39.31zm36.34 12.29l-.23-.51-.55-1.21-.64-1.42-.52-1.14c-.14-.31-.3-.75-.71-.75a1.12 1.12 0 0 0-.4.09c-.73.27-1.45.63-2.17.94l-1.45.63-.78.34c-.41.17-.83.48-.61 1a.66.66 0 0 0 .86.34L35 24.1a16.25 16.25 0 0 1-31.66-2 .66.66 0 0 0-1.3.2 17.56 17.56 0 0 0 34.21 2.17l1.49 3.28a.66.66 0 1 0 1.2-.54z"/></g></g></svg>