<?xml version="1.0" encoding="UTF-8"?>
<svg width="1174px" height="331px" viewBox="0 0 1174 331" version="1.1" xmlns="http://www.w3.org/2000/svg" xmlns:xlink="http://www.w3.org/1999/xlink">
    <title>rbc-vantage-blue-en</title>
    <g id="Page-1" stroke="none" stroke-width="1" fill="none" fill-rule="evenodd">
        <g id="rbc-vantage-blue-en" transform="translate(0.000000, -0.000000)" fill-rule="nonzero">
            <path d="M16.5268,48.5002 L5.8254,48.5002 L5.8254,11.319 C5.8254,9.7641 5.7797,8.3921 5.6882,7.203 C5.5967,6.0139 5.2309,5.0078 4.5906,4.1846 C4.2247,3.773 3.7445,3.4071 3.15,3.087 C2.6012,2.7211 2.0753,2.5153 1.5722,2.4696 L1.5722,1.2348 L16.5268,1.2348 L16.5268,48.5002 Z M98.8118,48.5002 L89.2078,48.5002 L72.8808,13.9944 L73.2238,48.5002 L63.1398,48.5002 L63.1398,11.319 C63.1398,9.7641 63.0938,8.3921 63.0018,7.203 C62.9108,6.0139 62.5448,5.0078 61.9048,4.1846 C61.5848,3.773 61.1268,3.4071 60.5328,3.087 C59.9838,2.7211 59.4348,2.5153 58.8858,2.4696 L58.8858,1.2348 L75.3498,1.2348 L89.3448,30.7328 L88.8648,1.2348 L98.8118,1.2348 L98.8118,48.5002 Z M164.2028,8.3692 L164.2028,48.5002 L153.5018,48.5002 L153.5018,8.3692 L140.7418,8.3692 L140.7418,1.2348 L176.9628,1.2348 L176.9628,8.3692 L164.2028,8.3692 Z M234.6418,22.7752 C236.0138,22.7752 237.1578,22.5237 238.0718,22.0206 C238.9868,21.5175 239.7418,20.9001 240.3358,20.1684 C240.9308,19.3909 241.3418,18.5677 241.5708,17.6988 C241.8448,16.8299 241.9828,16.0067 241.9828,15.2292 C241.9828,14.3145 241.8228,13.4456 241.5018,12.6224 C241.2278,11.7992 240.7938,11.0675 240.1988,10.4272 C239.6048,9.7869 238.8498,9.2839 237.9348,8.918 C237.0658,8.5064 236.0598,8.3006 234.9168,8.3006 L229.6348,8.3006 L229.6348,22.7752 L234.6418,22.7752 Z M245.6178,48.5002 L234.0248,29.841 L229.6348,29.841 L229.6348,48.5002 L218.9328,48.5002 L218.9328,11.319 C218.9328,9.7641 218.8868,8.3921 218.7958,7.203 C218.7038,6.0139 218.3388,5.0078 217.6978,4.1846 C217.3778,3.773 216.9208,3.4071 216.3258,3.087 C215.7768,2.7211 215.2288,2.5153 214.6798,2.4696 L214.6798,1.2348 L236.5628,1.2348 C238.8038,1.2348 240.8848,1.4863 242.8058,1.9894 C244.7718,2.4925 246.5098,3.2928 248.0188,4.3904 C249.4828,5.488 250.6718,6.9057 251.5868,8.6436 C252.5008,10.3815 252.9588,12.4852 252.9588,14.9548 C252.9588,16.6469 252.6388,18.2476 251.9978,19.7568 C251.4038,21.2203 250.6258,22.5237 249.6658,23.667 C249.0258,24.4902 248.2708,25.2219 247.4018,25.8622 C246.5788,26.5025 245.7098,27.0284 244.7948,27.44 L258.4468,48.5002 L245.6178,48.5002 Z M338.9318,24.9018 C338.9318,28.7434 338.3608,32.1963 337.2168,35.2604 C336.0738,38.3245 334.5188,40.9313 332.5528,43.0808 C330.5858,45.2303 328.2768,46.8767 325.6238,48.02 C323.0168,49.1633 320.2278,49.735 317.2548,49.735 C314.2818,49.735 311.4698,49.1633 308.8168,48.02 C306.1648,46.8767 303.8318,45.2303 301.8198,43.0808 C299.8528,40.9313 298.2978,38.3245 297.1548,35.2604 C296.0118,32.1963 295.4398,28.7434 295.4398,24.9018 C295.4398,21.0602 296.0118,17.6073 297.1548,14.5432 C298.2978,11.4791 299.8528,8.8723 301.8198,6.7228 C303.8318,4.5276 306.1648,2.8583 308.8168,1.715 C311.4698,0.5717 314.2818,7.10542736e-15 317.2548,7.10542736e-15 C320.2278,7.10542736e-15 323.0168,0.5717 325.6238,1.715 C328.2768,2.8583 330.5858,4.5276 332.5528,6.7228 C334.5188,8.8723 336.0738,11.4791 337.2168,14.5432 C338.3608,17.6073 338.9318,21.0602 338.9318,24.9018 Z M327.6818,24.9018 C327.6818,22.2035 327.4308,19.7797 326.9268,17.6302 C326.4238,15.4807 325.6928,13.6514 324.7318,12.1422 C323.8178,10.633 322.7198,9.4897 321.4388,8.7122 C320.1588,7.889 318.7638,7.4774 317.2548,7.4774 C315.6998,7.4774 314.2818,7.889 313.0018,8.7122 C311.7208,9.4897 310.6238,10.633 309.7088,12.1422 C308.7938,13.6514 308.0848,15.4807 307.5818,17.6302 C307.0788,19.7797 306.8278,22.2035 306.8278,24.9018 C306.8278,27.6001 307.0788,30.0239 307.5818,32.1734 C308.0848,34.2771 308.7938,36.0836 309.7088,37.5928 C310.6238,39.102 311.7208,40.2682 313.0018,41.0914 C314.2818,41.8689 315.6998,42.2576 317.2548,42.2576 C318.7638,42.2576 320.1588,41.8689 321.4388,41.0914 C322.7198,40.2682 323.8178,39.102 324.7318,37.5928 C325.6928,36.0836 326.4238,34.2771 326.9268,32.1734 C327.4308,30.0239 327.6818,27.6001 327.6818,24.9018 Z M393.3998,41.503 L396.2808,41.503 C398.7048,41.503 400.7858,41.1143 402.5238,40.3368 C404.3078,39.5593 405.8168,38.4617 407.0518,37.044 C408.2408,35.6263 409.1548,33.7969 409.7958,31.556 C410.4358,29.3151 410.7558,27.097 410.7558,24.9018 C410.7558,22.7066 410.4358,20.4885 409.7958,18.2476 C409.1548,15.9609 408.2408,14.1087 407.0518,12.691 C405.8168,11.2733 404.3078,10.1757 402.5238,9.3982 C400.7858,8.6207 398.7048,8.232 396.2808,8.232 L393.3998,8.232 L393.3998,41.503 Z M396.7618,1.2348 C399.8258,1.2348 402.7748,1.6464 405.6108,2.4696 C408.4458,3.2928 410.9158,4.5276 413.0198,6.174 C415.8088,8.3692 418.0048,11.1132 419.6048,14.406 C421.2058,17.6531 422.0058,21.1517 422.0058,24.9018 C422.0058,26.7769 421.8008,28.6291 421.3888,30.4584 C420.9768,32.242 420.3828,33.957 419.6048,35.6034 C418.8278,37.2498 417.8668,38.7819 416.7238,40.1996 C415.6268,41.6173 414.3918,42.875 413.0198,43.9726 C410.9158,45.619 408.4238,46.7852 405.5418,47.4712 C402.7068,48.1572 399.7798,48.5002 396.7618,48.5002 L382.6988,48.5002 L382.6988,11.319 C382.6988,9.7641 382.6528,8.3921 382.5608,7.203 C382.4698,6.0139 382.1038,5.0078 381.4638,4.1846 C381.1438,3.773 380.6858,3.4071 380.0918,3.087 C379.5428,2.7211 378.9938,2.5153 378.4448,2.4696 L378.4448,1.2348 L396.7618,1.2348 Z M502.3838,30.7328 C502.3838,34.0256 501.9038,36.8611 500.9438,39.2392 C500.0288,41.6173 498.7488,43.6067 497.1018,45.2074 C495.5018,46.7623 493.5808,47.9057 491.3398,48.6374 C489.1448,49.4149 486.7888,49.8036 484.2738,49.8036 C481.6218,49.8036 479.1748,49.4149 476.9338,48.6374 C474.6928,47.9057 472.7488,46.7852 471.1028,45.276 C469.4558,43.7211 468.1528,41.7545 467.1928,39.3764 C466.2778,36.9983 465.8208,34.1628 465.8208,30.87 L465.8208,11.319 C465.8208,9.7641 465.7748,8.3921 465.6828,7.203 C465.5918,6.0139 465.2258,5.0078 464.5858,4.1846 C464.2658,3.773 463.8078,3.4071 463.2138,3.087 C462.6648,2.7211 462.1158,2.5153 461.5668,2.4696 L461.5668,1.2348 L476.5218,1.2348 L476.5218,31.556 C476.5218,33.4768 476.7738,35.1232 477.2768,36.4952 C477.7798,37.8215 478.4428,38.9191 479.2658,39.788 C480.0888,40.6112 481.0498,41.2286 482.1468,41.6402 C483.2448,42.0061 484.3878,42.189 485.5768,42.189 C488.5958,42.189 490.8368,41.16 492.2998,39.102 C493.8088,36.9983 494.5638,34.1857 494.5638,30.6642 L494.5638,1.2348 L502.3838,1.2348 L502.3838,30.7328 Z M580.8578,13.1026 C580.2628,12.2337 579.5538,11.4333 578.7308,10.7016 C577.9078,9.9699 577.0158,9.3296 576.0558,8.7808 C575.1408,8.232 574.1578,7.8204 573.1058,7.546 C572.0998,7.2259 571.0938,7.0658 570.0878,7.0658 C568.7158,7.0658 567.2748,7.3402 565.7658,7.889 C564.3018,8.4378 562.9528,9.3982 561.7178,10.7702 C560.5288,12.1422 559.5228,13.9715 558.6998,16.2582 C557.9228,18.5449 557.5338,21.4261 557.5338,24.9018 C557.5338,28.4233 558.0368,31.3273 559.0428,33.614 C560.0488,35.9007 561.3068,37.73 562.8158,39.102 C564.3248,40.474 565.9488,41.4344 567.6868,41.9832 C569.4248,42.532 571.0478,42.8064 572.5568,42.8064 C574.0208,42.8064 575.4158,42.532 576.7418,41.9832 C578.1138,41.3887 579.3258,40.7255 580.3778,39.9938 C581.5668,39.1706 582.6868,38.2331 583.7388,37.1812 L583.7388,46.3736 C582.7788,47.0139 581.6348,47.5855 580.3088,48.0886 C579.1658,48.5002 577.7478,48.8661 576.0558,49.1862 C574.3638,49.5521 572.3738,49.735 570.0878,49.735 C567.1148,49.735 564.1878,49.3005 561.3068,48.4316 C558.4708,47.5169 555.9098,46.0763 553.6238,44.1098 C551.3828,42.0975 549.5758,39.5365 548.2038,36.4266 C546.8318,33.271 546.1458,29.4294 546.1458,24.9018 C546.1458,20.8315 546.7638,17.2415 547.9978,14.1316 C549.2788,11.0217 550.9938,8.4378 553.1428,6.3798 C555.3388,4.2761 557.8768,2.6983 560.7578,1.6464 C563.6848,0.5488 566.7948,7.10542736e-15 570.0878,7.10542736e-15 C571.7798,7.10542736e-15 573.4028,0.1372 574.9578,0.4116 C576.5128,0.686 577.9308,1.029 579.2108,1.4406 C580.5378,1.8522 581.6808,2.2638 582.6408,2.6754 C583.6478,3.087 584.4248,3.43 584.9738,3.7044 L580.8578,13.1026 Z M639.6338,48.5002 L628.9318,48.5002 L628.9318,11.319 C628.9318,9.7641 628.8868,8.3921 628.7948,7.203 C628.7038,6.0139 628.3378,5.0078 627.6968,4.1846 C627.3318,3.773 626.8508,3.4071 626.2568,3.087 C625.7078,2.7211 625.1818,2.5153 624.6788,2.4696 L624.6788,1.2348 L639.6338,1.2348 L639.6338,48.5002 Z M721.9178,48.5002 L712.3138,48.5002 L695.9878,13.9944 L696.3308,48.5002 L686.2458,48.5002 L686.2458,11.319 C686.2458,9.7641 686.2008,8.3921 686.1088,7.203 C686.0178,6.0139 685.6518,5.0078 685.0118,4.1846 C684.6908,3.773 684.2338,3.4071 683.6398,3.087 C683.0908,2.7211 682.5418,2.5153 681.9928,2.4696 L681.9928,1.2348 L698.4568,1.2348 L712.4518,30.7328 L711.9708,1.2348 L721.9178,1.2348 L721.9178,48.5002 Z M805.6948,45.8934 C804.6428,46.3965 803.4768,46.8995 802.1958,47.4026 C800.9158,47.8599 799.5888,48.2715 798.2168,48.6374 C796.8448,49.0033 795.4728,49.2777 794.1008,49.4606 C792.7288,49.6893 791.4258,49.8036 790.1908,49.8036 C786.4868,49.8036 783.1248,49.2548 780.1068,48.1572 C777.1338,47.0596 774.5728,45.4589 772.4238,43.3552 C770.2738,41.2057 768.6048,38.5989 767.4158,35.5348 C766.2728,32.4249 765.7008,28.8806 765.7008,24.9018 C765.7008,20.8315 766.3178,17.2415 767.5528,14.1316 C768.8338,11.0217 770.5488,8.4378 772.6978,6.3798 C774.8928,4.2761 777.4318,2.6983 780.3128,1.6464 C783.2398,0.5488 786.3498,7.10542736e-15 789.6418,7.10542736e-15 C791.2888,7.10542736e-15 792.8888,0.1372 794.4438,0.4116 C795.9988,0.686 797.4168,1.029 798.6978,1.4406 C800.0238,1.8522 801.1898,2.2638 802.1958,2.6754 C803.2018,3.087 803.9798,3.43 804.5288,3.7044 L800.4128,13.1026 C799.2238,11.3647 797.6458,9.9241 795.6788,8.7808 C793.7578,7.6375 791.7458,7.0658 789.6418,7.0658 C788.2698,7.0658 786.8298,7.3402 785.3208,7.889 C783.8568,8.4378 782.5078,9.3982 781.2728,10.7702 C780.0838,12.1422 779.0778,13.9715 778.2548,16.2582 C777.4768,18.5449 777.0888,21.4261 777.0888,24.9018 C777.0888,27.6001 777.4318,30.0468 778.1178,32.242 C778.8038,34.3915 779.7638,36.2437 780.9988,37.7986 C782.2338,39.3535 783.6968,40.5426 785.3888,41.3658 C787.1268,42.189 789.0248,42.6006 791.0828,42.6006 C791.7688,42.6006 792.4318,42.5549 793.0718,42.4634 C793.7578,42.3719 794.4218,42.189 795.0618,41.9146 L795.0618,25.725 L805.6948,25.725 L805.6948,45.8934 Z" id="Shape" fill="#0051A5"></path>
            <path d="M435.5878,233.5022 C449.0738,194.4512 461.2108,148.1292 462.2898,130.0852 L494.9248,130.0852 L441.7908,274.1682 L415.3588,274.1682 L364.6528,130.0852 L399.7158,130.0852 L435.5878,233.5022 Z" id="Path" fill="#009CDC"></path>
            <path d="M592.8378,274.4352 L583.6678,274.4352 C579.8918,272.2812 577.1948,271.4732 574.4968,271.4732 C571.7998,271.4732 568.2938,272.5502 564.7878,273.8972 C560.4718,275.7822 553.4588,278.2062 544.8288,278.2062 C524.5998,278.2062 508.6868,268.2412 500.5948,253.1602 C495.4698,244.0032 493.3128,233.2302 493.3128,222.1882 C493.3128,199.8352 502.4828,184.7542 515.6988,174.5202 C524.8698,167.5182 537.2758,164.2862 548.8738,164.2862 C556.6958,164.2862 566.9448,166.4402 572.6088,168.5952 L592.8378,164.0172 L592.8378,274.4352 Z M548.8738,186.3702 C536.7368,186.3702 525.1388,197.1422 525.1388,220.8422 C525.1388,234.8462 528.9148,245.3492 535.3878,251.0052 C538.6248,253.6982 542.4008,255.8532 547.5258,255.8532 C552.9198,255.8532 558.8538,253.4292 562.0898,251.0052 L562.0898,189.6012 C557.7748,187.4472 552.9198,186.3702 548.8738,186.3702 Z" id="Shape" fill="#009CDC"></path>
            <path d="M685.3448,274.1682 L685.3448,215.1882 C685.3448,205.7622 683.9968,199.2992 681.2998,194.9902 C678.0628,190.4122 672.6688,187.9882 666.7348,187.9882 C660.8008,187.9882 655.4068,189.8732 651.3608,191.4892 L651.3608,273.8992 L620.3438,273.8992 L620.3438,167.2512 L629.7838,167.2512 C634.3688,169.6742 636.7968,170.2132 639.2238,170.2132 C648.1248,170.2132 655.4068,164.2882 670.7808,164.2882 C687.5028,164.2882 700.9888,170.4822 709.0808,182.3322 C714.2048,190.4122 716.3628,201.4532 716.3628,212.7652 L716.3628,274.1682 L685.3448,274.1682 Z" id="Path" fill="#009CDC"></path>
            <path d="M807.2558,263.3942 C796.4668,270.3962 780.8238,276.8602 768.4168,276.8602 C761.1338,276.8602 753.3128,274.7052 748.7268,269.0492 C744.4118,264.4712 742.2538,256.9302 742.2538,247.2352 L742.2538,136.5472 L773.2718,129.2752 L773.2718,167.2492 L801.3218,167.2492 L801.3218,188.2552 L773.2718,188.2552 L773.2718,245.6192 C773.2718,250.7362 776.2388,252.6212 779.2048,252.6212 C784.8688,252.6212 795.6578,248.3122 801.0518,246.1582 L807.2558,263.3942 Z" id="Path" fill="#009CDC"></path>
            <path d="M921.6258,274.4352 L912.4558,274.4352 C908.6768,272.2812 905.9798,271.4732 903.2818,271.4732 C900.5848,271.4732 897.0788,272.5502 893.5728,273.8972 C889.2568,275.7822 882.2448,278.2062 873.6138,278.2062 C853.3848,278.2062 837.4718,268.2412 829.3798,253.1602 C824.2558,244.0032 822.0978,233.2302 822.0978,222.1882 C822.0978,199.8352 831.2678,184.7542 844.4838,174.5202 C853.6548,167.5182 866.0618,164.2862 877.6588,164.2862 C885.4808,164.2862 895.7298,166.4402 901.3938,168.5952 L921.6258,164.0172 L921.6258,274.4352 Z M877.9288,186.3702 C865.7918,186.3702 854.1938,197.1422 854.1938,220.8422 C854.1938,234.8462 857.9698,245.3492 864.4428,251.0052 C867.6798,253.6982 871.4558,255.8532 876.5798,255.8532 C881.9748,255.8532 887.9088,253.4292 891.1448,251.0052 L891.1448,189.6012 C886.8298,187.4472 881.9748,186.3702 877.9288,186.3702 Z" id="Shape" fill="#009CDC"></path>
            <path d="M1047.5758,277.1292 C1047.5758,313.2172 1030.0458,330.9922 994.9858,330.9922 C982.5758,330.9922 966.3958,327.2222 954.2558,321.8362 L960.4558,294.6352 C976.1058,302.9842 988.7758,308.6392 998.2158,308.6392 C1009.2758,308.6392 1015.4858,300.5602 1016.0258,274.9752 C1010.0858,276.5912 1004.9658,277.9372 996.8758,277.9372 C961.8058,277.9372 944.2758,249.9292 944.2758,220.8432 C944.2758,189.6022 966.6658,163.7482 998.4858,163.7482 C1008.1958,163.7482 1014.9458,165.6332 1020.3358,167.5182 C1023.5758,168.8652 1026.5358,169.9422 1028.6958,169.9422 C1031.9358,169.9422 1034.0958,169.1342 1038.1358,166.9802 L1047.3058,166.9802 L1047.3058,277.1292 L1047.5758,277.1292 Z M1003.3458,186.9092 C986.0858,186.9092 976.3758,202.2602 976.3758,220.0352 C976.3758,241.8492 986.0858,255.8542 1001.1858,255.8542 C1008.7358,255.8542 1011.9758,254.5072 1013.8658,252.6222 C1015.2158,250.7372 1016.2958,248.0432 1016.2958,244.8122 L1016.2958,189.8722 C1013.3258,187.9862 1009.5458,186.9092 1003.3458,186.9092 Z" id="Shape" fill="#009CDC"></path>
            <path d="M1125.2558,278.2072 C1093.4258,278.2072 1070.2358,253.4312 1070.2358,221.6512 C1070.2358,189.0642 1093.9658,164.8262 1124.7158,164.8262 C1150.3358,164.8262 1173.2658,182.3322 1173.2658,213.8412 C1173.2658,216.5342 1172.9958,221.9212 1172.4558,226.7682 L1102.5958,228.1152 C1105.2958,247.5062 1116.0858,255.8542 1129.5658,255.8542 C1139.2758,255.8542 1150.0658,252.0842 1161.6658,245.0822 L1171.3758,262.3182 C1155.7358,273.3602 1141.4358,278.2072 1125.2558,278.2072 Z M1140.6258,206.3012 C1140.3558,190.9502 1132.8058,185.2942 1124.4458,185.2942 C1115.2758,185.2942 1105.8358,192.8352 1104.4858,208.1862 L1140.6258,206.3012 Z" id="Shape" fill="#009CDC"></path>
            <path d="M47.7398,179.9082 L33.4448,179.9082 L33.4448,216.5342 L46.9308,216.5342 C60.9558,216.5342 65.8108,205.2232 65.8108,197.4132 C65.8108,188.2562 59.8768,179.9082 47.7398,179.9082 Z M74.7108,274.4372 L45.5818,230.5392 L33.7148,230.5392 L33.7148,274.4372 L10.2492,274.4372 L10.2492,188.5262 C10.2492,181.5242 10.2492,175.8682 7.2823,172.0982 C5.664,170.2122 2.6972,168.3272 -1.42108547e-14,168.0582 L-1.42108547e-14,165.9032 L51.5158,165.9032 C62.0348,165.9032 71.4748,168.0582 78.4868,173.1752 C85.4998,178.2922 90.0848,186.1022 90.0848,196.8742 C90.0848,204.6852 86.8488,211.4172 82.5328,216.5342 C79.0268,220.5742 74.4418,223.8062 69.8568,225.6912 L103.0318,274.4372 L74.7108,274.4372 Z" id="Shape" fill="#0051A5"></path>
            <path d="M161.0178,210.0712 C170.4578,210.0712 177.4708,203.8772 177.4708,194.1812 C177.4708,186.3712 170.9968,179.9082 159.9388,179.9082 L146.1838,179.9082 L146.1838,210.0712 L161.0178,210.0712 Z M161.0178,260.7022 C175.0428,260.7022 182.5948,251.8152 182.5948,240.2342 C182.5948,230.2692 174.7728,223.8062 163.7148,223.8062 L145.9138,223.8062 L145.9138,260.7022 L161.0178,260.7022 Z M166.4118,166.1732 C190.6868,166.1732 201.7448,179.3692 201.7448,192.5652 C201.7448,203.6072 195.2718,211.1482 185.2918,214.9192 C200.3958,219.7662 207.4088,228.3842 207.4088,241.8502 C207.4088,249.9292 203.6328,258.2782 196.6198,264.4722 C189.8778,270.6672 178.8188,274.4372 167.4908,274.4372 L122.4488,274.4372 L122.4488,188.5262 C122.4488,181.5242 122.4488,175.8682 119.4818,172.0982 C117.8628,170.2122 114.8968,168.3272 112.1988,168.0582 L112.1988,165.9032 L166.4118,165.9032 L166.4118,166.1732 Z" id="Shape" fill="#0051A5"></path>
            <path d="M308.8258,190.4112 C303.4318,182.8702 293.4518,176.9452 283.2028,176.9452 C269.4478,176.9452 251.6458,186.9102 251.6458,220.5742 C251.6458,254.5072 274.3018,264.2032 289.1368,264.2032 C303.9708,264.2032 315.0288,252.3532 315.0288,252.3532 L315.0288,270.1282 C315.0288,270.1282 304.7798,277.3992 283.2028,277.3992 C254.8828,277.3992 226.5628,261.7792 226.5628,220.3052 C226.5628,182.8702 252.1858,163.2102 283.2028,163.2102 C298.8468,163.2102 312.6018,168.8662 317.4568,171.2892 L308.8258,190.4112 Z" id="Path" fill="#0051A5"></path>
        </g>
    </g>
</svg>