<svg xmlns="http://www.w3.org/2000/svg" viewBox="0 0 50.24 80"><g data-name="Layer 2"><path data-name="icon-buy-online (80)" d="M49.34.86C46.29-.21 43.86-.28 41.92.65c-2.53 1.22-3.41 3.79-4 5.49L34 17.24A20.69 20.69 0 008.94 30.35l-7.75 22a20.76 20.76 0 1039.16 13.8l7.75-22a20.75 20.75 0 00-11.54-26L40.48 7c.52-1.41 1.1-3.18 2.62-3.91 1.24-.6 3-.49 5.34.32a1.35 1.35 0 10.9-2.55zM28.52 19.18a18 18 0 015.53.89l-1.58 4.49a4.13 4.13 0 00-4.89 2.69l-2.81 8a4.2 4.2 0 002.12 5.16L25.63 44 9.06 38.12l2.42-6.88a18.09 18.09 0 0117.04-12.06zm-.85 20.47a3.2 3.2 0 01-2-4.08l2.81-8a3.2 3.2 0 016 2.13l-2.81 8a3.19 3.19 0 01-4.08 2zM37.8 65.24a18.06 18.06 0 01-34.07-12l5-14.15 34.07 12zm7-35.79a17.94 17.94 0 01.74 13.8l-2.42 6.88-16.54-5.83 1.25-3.55A4.14 4.14 0 0032.7 38l2.81-8a4.2 4.2 0 00-2.1-5.15L35 20.41a17.92 17.92 0 019.81 9.04z" fill="#006ac3"/></g></svg>