<svg xmlns="http://www.w3.org/2000/svg" viewBox="0 0 80 80"><defs><style>.cls-1{fill:#006ac3}</style></defs><g id="Layer_2" data-name="Layer 2"><g id="Basic"><g id="Marketing"><g id="Icons"><g id="icon-calculator_80_" data-name="icon-calculator (80)"><path class="cls-1" d="M76.09 0H3.91A3.91 3.91 0 000 3.91v72.18A3.91 3.91 0 003.91 80h72.18A3.91 3.91 0 0080 76.09V3.91A3.91 3.91 0 0076.09 0zm1.25 76.09a1.25 1.25 0 01-1.25 1.25H3.91a1.25 1.25 0 01-1.24-1.25V3.91a1.25 1.25 0 011.24-1.24h72.18a1.25 1.25 0 011.25 1.25z"/><path class="cls-1" d="M40 74.26a.7.7 0 01-.7-.7V40.7H6.44a.7.7 0 110-1.4H39.3V6.44a.7.7 0 111.4 0V39.3h32.86a.7.7 0 010 1.4H40.7v32.86a.7.7 0 01-.7.7z"/><path class="cls-1" d="M20.76 29.94a.63.63 0 01-.63-.63v-7.83h-7.82a.63.63 0 110-1.27h7.82V12.4a.63.63 0 011.27 0v7.82h7.82a.63.63 0 010 1.27H21.4v7.81a.63.63 0 01-.64.64zM48.22 21.4a.63.63 0 010-1.27h16.6a.63.63 0 010 1.27zM65.71 66.49a.62.62 0 01-.45-.18l-6.08-6.08-6.07 6.07a.63.63 0 11-.9-.89l6.08-6.08-6.08-6.08a.63.63 0 11.89-.9l6.08 6.08 6.08-6.08a.63.63 0 11.9.89l-6.08 6.08 6.08 6.08a.63.63 0 01-.45 1.08zM13 66.49a.63.63 0 01-.45-1.08l13-13a.63.63 0 11.9.89l-13 13a.63.63 0 01-.45.19z"/><circle class="cls-1" cx="13.89" cy="53.54" r=".87"/><circle class="cls-1" cx="25.67" cy="65.71" r=".87"/></g></g></g></g></g></svg>