<svg xmlns="http://www.w3.org/2000/svg" viewBox="0 0 80 73.53"><defs><style>.cls-1{fill:#006ac3}</style></defs><title>loans-80</title><g id="Layer_2" data-name="Layer 2"><g id="marketing"><path id="loans-80" class="cls-1" d="M78.9 14.43L65.54 1.07a3.85 3.85 0 0 0-5.32 0l-7.17 7.16a3.74 3.74 0 0 0-.84 4L34.86 18a3.78 3.78 0 0 0-1.49.93l-.85.86a1.33 1.33 0 0 0-.29-.44l-8.94-8.94a3.85 3.85 0 0 0-5.32 0L1.1 27.28a3.77 3.77 0 0 0 0 5.32L13 44.47l-.53 5.29a3.75 3.75 0 0 0 .79 2.71l4.45 5.63A3.79 3.79 0 0 0 20 59.47L30.39 61a3.73 3.73 0 0 0 1 1.86l9.53 9.53a3.77 3.77 0 0 0 5.32 0L63.1 55.57a3.76 3.76 0 0 0 0-5.32l-4.6-4.6a1.3 1.3 0 0 0 .57-.55l8.57-17.15c0-.06 0-.13.08-.19a3.73 3.73 0 0 0 4-.85l7.16-7.16a3.76 3.76 0 0 0 0-5.32zM3 30.72a1.1 1.1 0 0 1 0-1.55l16.85-16.86a1.12 1.12 0 0 1 1.55 0l8.94 8.94a1.32 1.32 0 0 0 .46.3L14.45 38.08a3.78 3.78 0 0 0-1.07 2.27l-.07.69zM61.54 52.9a1.09 1.09 0 0 1-.32.78L44.36 70.54a1.1 1.1 0 0 1-1.55 0L33.28 61a1.1 1.1 0 0 1 0-1.55l16.78-16.77a1.1 1.1 0 0 1 1.54 0l4.06 3.91 5.56 5.56a1.09 1.09 0 0 1 .32.75zm3.72-26.15L56.7 43.87l-3.25-3.13a3.78 3.78 0 0 0-5.27 0L31.39 57.58a3.71 3.71 0 0 0-.61.82l-5.68-.85 17.54-17.19a.5.5 0 1 0-.7-.71L23.87 57.36l-3.45-.52a1.09 1.09 0 0 1-.66-.4l-1.62-2 19.25-18.2a.5.5 0 0 0-.69-.73l-19.17 18.1-2.21-2.8a1.09 1.09 0 0 1-.23-.79l.14-1.36L31.89 32a.5.5 0 0 0-.71-.71l-15.8 15.8.62-6.48a1.11 1.11 0 0 1 .31-.66l18.95-19.13a1.08 1.08 0 0 1 .43-.27l17.46-5.8a1.1 1.1 0 0 1 1.11.25l8.3 8.07 2.69 2.69a1.09 1.09 0 0 1 .01 1zM77 17.86L69.85 25a1.1 1.1 0 0 1-1.55 0l-1-1a3.8 3.8 0 0 0-.43-.5l-2.48-2.41-9.49-9.49a1.1 1.1 0 0 1 0-1.55L62.1 3a1.1 1.1 0 0 1 1.55 0L77 16.31a1.1 1.1 0 0 1 0 1.55zM47.85 60.63a.5.5 0 0 1 0 .71l-2.27 2.27a2.93 2.93 0 0 1-4.14 0l-2.27-2.27a.5.5 0 0 1 .71-.71l2.27 2.27a1.93 1.93 0 0 0 2.73 0l2.27-2.27a.5.5 0 0 1 .7 0zm6.72-10.16a2.93 2.93 0 0 1 0 4.14l-2.27 2.27a.5.5 0 0 1-.71-.71l2.27-2.27a1.93 1.93 0 0 0 0-2.73l-2.26-2.26a.5.5 0 0 1 .71-.71zM17.43 22.71a.5.5 0 0 1 0-.71l2.27-2.27a3 3 0 0 1 4.14 0L26.11 22a.5.5 0 1 1-.71.71l-2.27-2.27a2 2 0 0 0-2.73 0l-2.27 2.27a.5.5 0 0 1-.7 0zm-3.75 12.43a.5.5 0 0 1-.71 0l-2.27-2.27a2.94 2.94 0 0 1 0-4.14l2.3-2.27a.5.5 0 0 1 .71.71l-2.27 2.27a1.93 1.93 0 0 0 0 2.73l2.27 2.27a.5.5 0 0 1-.03.7z"/></g></g></svg>