<svg xmlns="http://www.w3.org/2000/svg" viewBox="0 0 55.97 80"><defs><style>.cls-1{fill:#006ac3}</style></defs><title>mortgages-80</title><g id="Layer_2" data-name="Layer 2"><g id="marketing"><path id="mortgages-80" class="cls-1" d="M55.55 25.71L28.9.37a1.33 1.33 0 0 0-1.84 0L.41 25.71a1.33 1.33 0 0 0-.41 1v52A1.33 1.33 0 0 0 1.33 80h53.3A1.33 1.33 0 0 0 56 78.67v-52a1.33 1.33 0 0 0-.45-.96zM12.28 77.33v-6h31.41v6zm31.41-13.58H12.28v-4.92a1.12 1.12 0 0 1 1.12-1.12h29.17a1.12 1.12 0 0 1 1.12 1.12zm-31.41 1h31.41v5.55H12.28zm41 12.58h-6.92v-18.5a3.79 3.79 0 0 0-3.78-3.78H13.4a3.79 3.79 0 0 0-3.78 3.78v18.5H2.67V27.25L28 3.17l25.3 24.08zM9.61 37.86v8.64a3.79 3.79 0 0 0 3.78 3.78h29.18a3.79 3.79 0 0 0 3.78-3.78v-8.64a3.79 3.79 0 0 0-3.78-3.78H13.4a3.79 3.79 0 0 0-3.79 3.78zm2.67 8.64v-8.64a1.12 1.12 0 0 1 1.12-1.12h8.85v10.88H13.4a1.12 1.12 0 0 1-1.12-1.11zm11-9.76h9.49v10.88h-9.53zm20.45 1.12v8.64a1.12 1.12 0 0 1-1.12 1.12h-8.88V36.75h8.85a1.12 1.12 0 0 1 1.11 1.11zM24 22.3a4 4 0 1 0 4-4 4 4 0 0 0-4 4zm7 0a3 3 0 1 1-3-3 3 3 0 0 1 3 3z"/></g></g></svg>