<svg xmlns="http://www.w3.org/2000/svg" viewBox="0 0 80 72.78"><path d="M20.2 22.47a3.22 3.22 0 103.22 3.22 3.23 3.23 0 00-3.22-3.22zm0 5.45a2.22 2.22 0 112.22-2.22 2.23 2.23 0 01-2.22 2.22zm33.36-16.45a1.33 1.33 0 01-1.82.49A22.15 22.15 0 0042 9.21a1.33 1.33 0 010-2.67 24.5 24.5 0 0111.07 3.1 1.33 1.33 0 01.49 1.83zm26.37 16.61c-.55-3.57-2.43-5.38-5.74-5.52C68.61 9.78 55.14 1.25 40.35 1.25a38.2 38.2 0 00-14.6 2.85c-1.64-1.61-6.13-4.89-15-3.93a3.35 3.35 0 00-2.51 1.56A3 3 0 008 4.41a27.57 27.57 0 003.39 5.4c.65.88 1.47 2 1.87 2.71a33.65 33.65 0 00-8.17 14C2.85 26.42 0 28.24 0 30.65v8.94c0 2.34 2.62 4.15 4.88 4.15a33.21 33.21 0 009.44 15.74v7.46c0 1.48 0 3.16 1.18 4.39 1 1 2.51 1.45 4.82 1.45 5.86 0 6.41-3 6.47-5.46a38.79 38.79 0 0027.14 0c.27 3.63 2.28 5.47 6 5.47 2.7 0 4.35-.46 5.36-1.48s1.13-2.69 1.11-4.16v-7.67a32.66 32.66 0 0010.48-23.94c0-.11 0-.52.07-1v-.37a5.9 5.9 0 002.98-6.09zm-4.74 4.06a1.37 1.37 0 00-.81 1.2c0 .12 0 .59-.08 1.05s-.08 1.05-.08 1.12a30.09 30.09 0 01-10 22.41 1.33 1.33 0 00-.43 1v8.27c0 1.17 0 1.9-.34 2.25s-1.17.69-3.47.69c-2.52 0-3.33-.9-3.33-3.7v-1.1a1.33 1.33 0 00-1.89-1.21 34.58 34.58 0 01-14.33 3A34.58 34.58 0 0126 64.1a1.33 1.33 0 00-1.89 1.21v1.24c0 2.67 0 3.56-3.8 3.56-1.88 0-2.63-.36-2.92-.66S17 68.07 17 67v-8.1a1.33 1.33 0 00-.43-1 30.52 30.52 0 01-9.37-16 1.33 1.33 0 00-1.79-1 1.48 1.48 0 01-.55.1c-1 0-2.2-.83-2.2-1.48v-8.87c0-.63 1.21-1.43 2.21-1.43a1.47 1.47 0 01.63.14 1.33 1.33 0 001.86-.89 30.94 30.94 0 018.4-14.66 1.33 1.33 0 00.39-1.12c-.14-1.07-1-2.33-2.59-4.45a26 26 0 01-3.06-4.81.33.33 0 010-.32.68.68 0 01.5-.29c9.72-1 13.14 3.47 13.27 3.65a1.33 1.33 0 001.63.45 35.52 35.52 0 0114.42-3c14 0 26.79 8.24 31.71 20.5a1.32 1.32 0 001.38.83h.33c2 0 3.09.52 3.51 3.26a3.32 3.32 0 01-2.07 3.63z" fill="#006ac3" data-name="Layer 2"/></svg>