<svg xmlns="http://www.w3.org/2000/svg" viewBox="0 0 40 33.83"><defs><style>.cls-1{fill:#006ac3}</style></defs><title>investments_40</title><g id="Layer_2" data-name="Layer 2"><g id="Layer_1-2" data-name="Layer 1"><g id="investments_40x40"><path class="cls-1" d="M14.71 11.17v19.69a.25.25 0 0 0 .5 0V11.17a.25.25 0 1 0-.5 0zM24.79 20.54v10.32a.25.25 0 0 0 .5 0V20.54a.25.25 0 1 0-.5 0zM36.82 7.42v23.44a.25.25 0 0 0 .5 0V7.42a.25.25 0 0 0-.5 0z"/><path class="cls-1" d="M2.93 21.79a2.92 2.92 0 0 0 2.52-4.42l8.12-8.12a2.91 2.91 0 0 0 2.92-.08l6 5.54a2.93 2.93 0 1 0 5.08-.2l8.22-9a2.94 2.94 0 1 0-1.15-1.06l-8.22 9a2.9 2.9 0 0 0-2.86.12l-6-5.57a2.93 2.93 0 1 0-5.11.14l-8.13 8.15a2.93 2.93 0 1 0-1.39 5.5zM37.07 1.56a1.37 1.37 0 1 1-1.37 1.37 1.37 1.37 0 0 1 1.37-1.37zM25 14.69a1.37 1.37 0 1 1-1.37 1.37A1.37 1.37 0 0 1 25 14.69zM15 5.31a1.37 1.37 0 1 1-1.37 1.37A1.37 1.37 0 0 1 15 5.31zM2.93 17.5a1.37 1.37 0 1 1-1.37 1.37 1.37 1.37 0 0 1 1.37-1.37zM2.68 23.36v7.5a.25.25 0 0 0 .5 0v-7.5a.25.25 0 1 0-.5 0zM39.22 32.26H.78a.78.78 0 0 0 0 1.56h38.44a.78.78 0 0 0 0-1.56z"/></g></g></g></svg>