<svg xmlns="http://www.w3.org/2000/svg" viewBox="0 0 80 62.21"><defs><style>.cls-1{fill:#006ac3}</style></defs><title>credit-cards-80</title><g id="Layer_2" data-name="Layer 2"><g id="marketing"><path id="credit-cards-80" class="cls-1" d="M57.49 50.46a1.33 1.33 0 0 1-1.33 1.33h-47a1.33 1.33 0 0 1 0-2.67h47a1.33 1.33 0 0 1 1.33 1.34zM80 2.61v39.18a2.61 2.61 0 0 1-2.61 2.61H65.3v15.2a2.61 2.61 0 0 1-2.61 2.61H2.61A2.61 2.61 0 0 1 0 59.6V20.42a2.61 2.61 0 0 1 2.61-2.61H14.7V2.61A2.61 2.61 0 0 1 17.31 0h60.08A2.61 2.61 0 0 1 80 2.61zM2.67 20.48v7.85h60v-7.85zm60 8.85h-60v6.84h60zm0 30.22V37.17h-60v22.38zM77.33 2.67h-60v15.14h45.36a2.61 2.61 0 0 1 2.61 2.61v21.32h12z"/></g></g></svg>