<svg width="9" height="9" fill="none" xmlns="http://www.w3.org/2000/svg"><path d="M.761 8.907c.464 0 .789-.222 1.114-.4.278-.134.556-.312.881-.446 1.485-.757 2.97-1.559 4.454-2.36.464-.223 1.067-.446 1.391-.847.093-.133.232-.311.186-.534-.14-.49-.789-.668-1.206-.89-1.02-.535-2.088-1.114-3.108-1.649-.372-.222-.928-.623-1.392-.311-.186.089-.278.178-.325.311-.046.179 0 .401 0 .58v1.425c0 .4-.046.712.232.89.093.045.278.09.418.045.464-.178.324-.98.324-1.603v-.49c.789.4 1.578.801 2.366 1.158.279.133.743.267.835.623.093.4-.788.713-1.067.846l-3.2 1.737c-.233.134-.836.58-1.207.446-.139-.045-.232-.179-.232-.268-.046-.178-.046-.445-.046-.668v-3.83c0-.356-.047-.801.093-1.024.324-.446 1.067.356 1.299-.356.046-.179-.047-.357-.14-.446C2.246.58 1.411.178 1.086.09A1.422 1.422 0 00.622 0C-.167.134.02 1.336.02 2.227v4.409c0 .668-.093 1.559.186 1.96.139.222.278.222.556.311zm2.413-2.895c.696 0 .742-.846.092-.98-.37-.044-.649.312-.556.624.093.223.232.267.464.356z" fill="#00AECD"/></svg>