<svg width="78" height="101" viewBox="0 0 78 101" fill="none" xmlns="http://www.w3.org/2000/svg">
<g clip-path="url(#clip0_1_36)">
<path d="M76.1855 87.3651C76.1855 90.6469 74.8728 92.3972 72.2474 93.4911C62.1833 97.4292 50.369 99.3983 38.9922 99.3983C27.6154 99.3983 15.8011 97.4292 5.737 93.4911C3.11159 92.3972 1.79889 90.6469 1.79889 87.3651V1.60173H76.1855V87.3651Z" fill="#0059B3"/>
<path d="M76.1855 87.3651C76.1855 90.6469 74.8728 92.3972 72.2474 93.4911C62.1833 97.4292 50.369 99.3983 38.9922 99.3983C27.6154 99.3983 15.8011 97.4292 5.737 93.4911C3.11159 92.3972 1.79889 90.6469 1.79889 87.3651V1.60173H76.1855V87.3651Z" stroke="white" stroke-width="2.18784"/>
<path d="M21.7083 53.8912C11.4254 47.5464 7.92487 44.7022 7.70608 40.3265C7.70608 39.4514 7.92487 37.9199 8.14365 37.0448L7.26852 36.3884C6.39338 37.7011 5.95581 39.2326 5.95581 40.7641C5.95581 43.1707 6.83095 45.1398 7.70608 46.4525C9.23757 48.6403 10.7691 50.1718 14.4884 52.7972C18.4265 55.8602 21.2707 59.3608 22.8022 63.0801H23.4585V58.9232C28.9281 61.9862 33.7414 64.8304 36.148 70.0812H36.8044C35.7105 64.8304 32.6475 60.6735 21.7083 53.8912ZM51.9005 39.889C49.7126 40.9829 48.1812 42.2956 46.6497 44.2646L51.2441 44.0459C51.4629 41.858 51.6817 40.5453 51.9005 39.889ZM68.5281 56.2978C68.9657 55.2039 69.4032 53.8912 69.4032 52.7972L62.6209 52.3597C62.4021 54.1099 61.9646 55.6414 61.3082 57.1729L68.5281 56.2978ZM61.3082 39.4514C61.7458 40.7641 62.1833 42.0768 62.4021 43.1707L66.3402 42.9519C65.0275 41.4205 63.2773 40.3265 61.3082 39.4514ZM59.5579 43.3895C59.1204 41.858 58.464 40.1077 57.5889 38.5763H55.401C54.7447 40.1077 54.3071 41.858 53.8695 43.6083L59.5579 43.3895ZM62.8397 45.5774C63.0585 47.3276 63.0585 48.8591 63.0585 50.3906L69.622 49.953C69.4032 48.4215 68.9657 47.1088 68.3093 45.7961L62.8397 45.5774ZM60.6519 50.3906C60.6519 48.6403 60.4331 47.1088 59.9955 45.3586L53.432 45.1398C52.9944 47.1088 52.7756 49.0779 52.5568 50.8282L60.6519 50.3906ZM61.527 36.3884L62.4021 35.2945L61.3082 33.763L61.527 33.3254L64.8088 35.0757L64.1524 37.2636C64.59 37.4823 65.2463 37.9199 65.9027 38.3575L68.0905 34.8569L62.6209 32.0127H50.369L40.3049 37.9199C42.274 39.2326 43.8055 40.5453 45.1182 42.0768C47.7436 38.1387 52.5568 35.7321 57.1513 35.7321C58.2452 35.7321 59.9955 35.9508 61.527 36.3884ZM36.8044 36.1696L42.274 32.8879C41.1801 32.2315 39.8674 32.0127 38.5547 32.0127C36.5856 32.0127 33.5226 32.8879 31.9911 33.1067C32.6475 33.5442 35.2729 35.0757 36.8044 36.1696ZM38.1171 23.6989C36.148 23.2614 35.0541 23.4802 33.9602 24.5741C34.6165 24.7929 35.2729 25.0116 35.9292 25.0116C37.0232 24.7929 37.6795 24.1365 38.1171 23.6989ZM69.1844 70.3H68.5281C68.5281 66.3619 65.0275 65.4867 61.3082 65.4867H49.7126C50.1502 67.4558 50.1502 69.6436 49.9314 71.6127H49.2751C48.1812 63.0801 43.3679 58.7044 36.5856 54.1099V58.0481H35.9292C34.179 53.8912 30.2409 50.1718 26.3027 47.5464L23.2398 45.3586V49.5155H22.5834C21.0519 45.3586 17.9889 42.0768 14.0508 38.3575C9.67514 34.4194 7.70608 32.0127 6.83095 29.1685C6.17459 27.4183 5.95581 26.1056 5.95581 24.3553C5.95581 21.0735 7.4873 18.0105 9.67514 16.9166V18.4481C8.58122 19.7608 8.14365 21.5111 8.14365 23.2614C8.14365 24.7929 8.58122 26.7619 9.23757 28.2934C11.863 33.1067 20.1768 39.0138 25.6464 42.5144C42.4928 53.6724 45.7745 55.6414 48.6187 61.7674C48.8375 62.4237 49.2751 63.2989 49.4939 64.3928C51.9005 63.9552 60.6519 62.6425 62.4021 62.4237C62.6209 62.4237 63.2773 62.205 63.7148 62.205C65.2463 61.3298 66.3402 60.0171 67.4342 58.4856L61.0894 58.0481C60.8706 58.7044 60.4331 59.3608 60.2143 59.7983H59.7767C59.9955 59.142 59.9955 58.4856 60.2143 57.8293L58.464 57.6105V57.1729L60.2143 56.9541C60.6519 55.2039 60.6519 53.4536 60.6519 51.9221L52.5568 51.4845V53.8912H52.1193C51.9005 53.016 51.9005 52.3597 51.6817 51.4845H49.9314V51.047H51.6817C51.4629 49.0779 51.4629 47.1088 51.4629 45.1398L46.6497 44.921L47.306 46.2337C48.3999 49.0779 48.1812 52.3597 47.7436 53.8912H47.0872C47.0872 52.1409 46.4309 49.953 45.7745 48.6403C44.4618 45.5774 41.6176 42.7332 36.5856 39.6702V43.6083H35.9292C34.3978 38.3575 30.2409 35.5133 24.1149 32.4503C19.0829 29.8249 17.5514 26.7619 17.7702 21.9487L19.5204 23.0426C19.958 27.4183 23.4585 30.0437 26.9591 30.0437C29.1469 30.0437 31.116 29.8249 33.085 29.3873C35.9292 28.731 38.3359 28.2934 40.5237 29.1685V26.5431H38.7734C38.1171 26.9807 37.0232 27.637 35.2729 27.637C33.3038 27.637 29.5845 26.5431 29.5845 22.3862C29.5845 18.6669 32.6475 18.2293 35.0541 18.2293H39.4298C40.0861 18.2293 40.3049 18.0105 40.7425 17.7918C40.9613 17.573 41.1801 17.1354 41.1801 16.9166V12.3222H29.5845V16.9166L25.2088 15.1664V14.0724H27.3967V12.3222H19.7392V8.60283H17.1138C15.5823 8.60283 14.0508 9.47796 13.832 11.447C13.832 13.4161 14.4884 14.9476 16.4575 14.9476H16.895V17.1354H16.4575C13.1757 17.1354 10.5503 14.7288 10.5503 11.2282C10.5503 7.72769 13.3945 5.10228 17.1138 5.10228H22.8022V8.82161H44.6806V14.51C44.6806 15.3851 44.6806 16.6978 44.4618 17.573C44.4618 18.2293 44.243 19.1045 43.1491 19.9796C42.4928 20.4172 41.3988 20.636 39.8674 20.636C38.5547 20.636 37.242 20.636 35.9292 20.4172C33.5226 20.1984 32.6475 21.2923 32.6475 22.1674V22.8238C33.7414 21.9487 35.4917 21.2923 37.242 21.9487C40.5237 23.0426 41.3988 23.0426 43.1491 21.7299L43.3679 22.1674C43.1491 22.3862 42.9303 22.8238 42.274 23.2614H43.8055V32.0127L48.8375 28.9498H62.8397L69.622 32.4503C70.4971 32.8879 70.7159 33.5442 70.9347 34.2006C70.9347 34.8569 70.9347 35.7321 70.4971 36.1696C70.2784 36.6072 68.7469 39.2326 67.8717 40.5453C70.4971 43.3895 71.8099 46.8901 71.8099 50.6094C71.8099 54.3287 70.4971 58.9232 66.1215 62.4237C67.8717 62.8613 69.1844 63.9552 70.2784 65.4867L69.1844 70.3Z" fill="#FFDF01"/>
<path d="M39.4298 88.8966H36.8044V81.2392H39.4298C42.9303 81.2392 44.243 82.3331 44.243 84.9585C44.0242 87.5839 42.274 88.8966 39.4298 88.8966ZM39.211 73.8005C41.3988 73.8005 42.7115 74.2381 42.7115 76.4259C42.7115 78.8326 40.7425 79.4889 38.5546 79.4889H36.5856V73.8005H39.211ZM43.3679 80.1453C45.3369 79.9265 47.0872 78.395 47.0872 76.2071C47.0872 74.2381 46.2121 72.0502 40.3049 72.0502H30.4596V72.269C30.6784 72.269 31.3348 72.7066 31.5535 72.9254C32.2099 73.5817 32.4287 74.4569 32.4287 75.7696V90.6469H40.5237C45.1182 90.6469 48.1811 88.8966 48.1811 84.9585C48.3999 81.6767 45.9933 80.364 43.3679 80.1453ZM15.5823 73.8005H18.4265C20.8331 73.8005 22.1458 74.4569 22.1458 77.0823C22.1458 79.2701 20.6143 80.8016 17.9889 80.8016H15.8011V73.8005H15.5823ZM23.2397 90.6469H28.4906L21.7082 81.8955C24.3337 81.2392 26.5215 79.7077 26.5215 76.8635C26.5215 73.5817 24.5524 72.0502 19.7392 72.0502H9.23755V72.269C9.67512 72.4878 10.1127 72.7066 10.3315 72.9254C10.9878 73.5817 11.2066 74.6757 11.2066 76.2071V90.6469H15.5823V82.3331H17.1138L23.2397 90.6469ZM65.6839 74.6757C66.7778 75.332 67.2154 76.2071 67.2154 76.2071H67.4341L68.3093 73.1442C68.3093 73.1442 66.559 72.0502 62.6209 72.0502C56.4949 72.0502 52.1193 75.1132 52.1193 81.6767C52.1193 89.1154 57.5889 91.0845 62.1833 91.0845C66.559 91.0845 68.3093 89.7718 68.3093 89.7718V87.5839C68.3093 87.5839 66.7778 89.1154 63.496 89.1154C60.6518 89.1154 56.7137 87.8027 56.7137 81.6767C56.7137 75.9884 59.1203 74.2381 62.4021 74.2381C64.1524 73.8005 65.0275 74.2381 65.6839 74.6757Z" fill="white"/>
</g>
<defs>
<clipPath id="clip0_1_36">
<rect width="77.7656" height="99.9844" fill="white" transform="translate(0 0.507812)"/>
</clipPath>
</defs>
</svg>
