<svg xmlns="http://www.w3.org/2000/svg" viewBox="0 0 238 238"><defs><style>.cls-1{fill:#006ac3}</style></defs><g id="Layer_2" data-name="Layer 2"><g id="Layer_1-2" data-name="Layer 1"><path class="cls-1" d="M237.92 3.22c0-.12-.07-.23-.1-.34a3.94 3.94 0 0 0-.13-.41 4 4 0 0 0-.2-.38c-.06-.1-.1-.21-.17-.31a4 4 0 0 0-.5-.61 4 4 0 0 0-.6-.49c-.1-.07-.21-.11-.32-.17a3.93 3.93 0 0 0-.37-.2 3.93 3.93 0 0 0-.4-.12c-.12 0-.23-.08-.35-.1A4 4 0 0 0 234 0h-50a4 4 0 0 0 0 8h40.34L8 224.34V184a4 4 0 1 0-8 0v50a4 4 0 0 0 .08.79c0 .11.07.22.1.33a3.93 3.93 0 0 0 .13.42 4 4 0 0 0 .19.37c.06.11.11.22.17.32a4 4 0 0 0 .49.6 4 4 0 0 0 .61.5c.1.07.21.11.31.17a3.94 3.94 0 0 0 .38.2 3.94 3.94 0 0 0 .41.13c.11 0 .22.08.34.1A4 4 0 0 0 4 238h50a4 4 0 1 0 0-8H13.66L230 13.66V54a4 4 0 0 0 8 0V4a4 4 0 0 0-.08-.78z"/><path class="cls-1" d="M67.59 115.09a46.5 46.5 0 1 0-32.88-13.62 46.2 46.2 0 0 0 32.88 13.62zM40.36 41.36a38.5 38.5 0 1 1 0 54.45 38.38 38.38 0 0 1 0-54.45zm96.17 96.17a46.5 46.5 0 1 0 65.76 0 46.55 46.55 0 0 0-65.76 0zm60.1 60.1a38.48 38.48 0 1 1 0-54.45 38.55 38.55 0 0 1 .01 54.46z"/></g></g></svg>