<svg viewBox="0 0 16 16" fill="none" xmlns="http://www.w3.org/2000/svg"><path d="M8 16c4.42 0 8-3.582 8-7.998A8.002 8.002 0 008 0a7.999 7.999 0 100 15.997V16zm-2.872-5.665l.97-.927a.177.177 0 01.247 0c.586.583 1.15.876 1.678.876.25 0 .46-.08.64-.242a.716.716 0 00.097-1.007c-.12-.142-.367-.293-.737-.454-.831-.357-1.378-.637-1.675-.85a2.33 2.33 0 01-.692-.75 1.845 1.845 0 01-.235-.9c0-.529.21-.986.618-1.362.367-.335.821-.528 1.356-.583v-.827c0-.1.08-.177.177-.177h.96c.099 0 .176.08.176.177v.914c.287.07.535.164.744.277.245.132.521.347.85.656a.17.17 0 01.055.132.178.178 0 01-.058.129l-.982.895a.182.182 0 01-.245 0c-.412-.396-.818-.599-1.204-.599-.219 0-.39.052-.518.155-.116.093-.174.193-.174.305 0 .094.055.194.16.297.088.086.29.228.786.418.776.3 1.298.554 1.59.77.3.221.532.488.693.8.16.316.245.67.245 1.053 0 .383-.087.747-.261 1.075-.17.329-.396.592-.67.786-.248.173-.58.305-1.008.405v.956c0 .1-.08.177-.177.177h-.959c-.1 0-.177-.08-.177-.177v-.917c-.4-.058-.747-.161-1.04-.313a5.014 5.014 0 01-1.236-.914.177.177 0 01-.052-.128c0-.049.02-.094.055-.126h.003z" fill="#FEDF01"/></svg>